<?xml version="1.0" encoding="UTF-8"?>
<svg id="Layer_2" data-name="Layer 2" xmlns="http://www.w3.org/2000/svg" width="27.97" height="28.59" viewBox="0 0 27.97 28.59">
  <defs>
    <style>
      .cls-1 {
        fill: #f99f28;
      }

      .cls-2 {
        fill: #8a5d3b;
      }
    </style>
  </defs>
  <g id="H_logo" data-name="H logo">
    <g>
      <path class="cls-1" d="m13.6,9.34l-.94.02c-.05,0-.1.02-.13.06l-.35.36c-.22-.15-.69-.39-1.4-.37-.74.01-2.29.04-2.81,1.12-.04.07-.02.16.04.22.06.06.15.07.22.03.66-.35,1.35-.17,1.61-.08v.81c0,.05.03.1.07.14.04.04.09.05.14.05l1.71-.05s.1-.02.13-.06l.33-.35.34.33s.09.05.14.05l.94-.02c.05,0,.1-.02.13-.06.03-.03.05-.08.05-.13l-.02-1.89c0-.05-.02-.1-.06-.13-.04-.04-.09-.05-.14-.05Zm-3.43,9.54c0,.2.08.39.22.53.15.14.34.22.55.22.21,0,.4-.08.54-.23s.21-.33.21-.54l-.15-6.83-1.28.03-.09,6.8Z"/>
      <path class="cls-1" d="m17.39,9.37h-1.23c-.08,0-.15.08-.15.17v3.95s0,.05.02.08l.28.63-.05.29c-.02.11.05.2.15.2h.74c.1,0,.17-.1.15-.21l-.05-.29.28-.63s.02-.05.02-.08v-3.95c0-.09-.07-.17-.15-.17Zm.24,8.03c-.09-.61-.17-1.23-.1-2.18,0-.1-.06-.19-.15-.19h-1.2c-.09,0-.16.08-.15.19.07.95-.02,1.57-.1,2.18-.09.64-.17,1.24-.06,2.12.01.08.08.15.15.15h1.53c.08,0,.14-.06.15-.15.11-.88.03-1.48-.06-2.12h0Z"/>
      <circle class="cls-2" cx="3.19" cy="14.69" r="1.08"/>
      <circle class="cls-2" cx="24.45" cy="14.32" r="1.08"/>
    </g>
    <g>
      <path class="cls-2" d="m4.16,11.59l-3.87-1.83.36-.76,1.52.72.7-1.49-1.52-.72.36-.76,3.87,1.83-.36.76-1.69-.8-.7,1.49,1.69.8-.36.76Z"/>
      <path class="cls-2" d="m5.12,5.78c-.26-.35-.42-.68-.5-1-.05-.23-.06-.47-.04-.7.03-.24.1-.45.2-.63.14-.24.35-.47.62-.67.49-.36,1-.49,1.53-.4.53.1,1,.43,1.41.99.41.56.58,1.1.52,1.63s-.34.98-.83,1.34c-.5.37-1.01.5-1.53.4-.52-.1-.99-.42-1.39-.97Zm.68-.54c.29.39.59.62.92.7.32.07.62,0,.89-.19.27-.2.42-.46.44-.79.03-.33-.11-.69-.4-1.09-.29-.4-.59-.63-.9-.7-.31-.07-.61,0-.88.2-.28.2-.43.47-.46.79-.03.32.11.68.4,1.08Z"/>
      <path class="cls-2" d="m10.3.44l.83-.11.31,2.3c.05.36.09.6.13.71.06.17.16.3.31.38s.34.12.57.08c.24-.03.41-.11.51-.22.11-.12.16-.25.17-.4,0-.15-.02-.39-.06-.73l-.32-2.35.83-.11.3,2.23c.07.51.1.87.08,1.09-.02.22-.08.41-.18.57s-.25.3-.44.41-.45.19-.77.24c-.39.05-.7.05-.91-.02-.22-.07-.39-.17-.53-.3-.14-.13-.24-.28-.3-.44-.09-.24-.16-.59-.23-1.07l-.31-2.26Z"/>
      <path class="cls-2" d="m15.93,3.03l.8.19c-.04.28-.02.51.08.69.1.17.27.3.51.38.25.09.47.1.63.03.17-.07.28-.17.33-.32.03-.1.03-.19,0-.27s-.11-.18-.23-.27c-.08-.06-.27-.2-.57-.39-.39-.25-.64-.49-.76-.71-.17-.31-.19-.62-.08-.94.07-.21.19-.38.37-.52s.39-.22.63-.24c.25-.02.52.02.82.12.49.17.83.41,1,.72s.2.65.09,1.03l-.81-.24c.04-.22.02-.39-.06-.52-.08-.13-.23-.23-.46-.31-.23-.08-.43-.09-.59-.04-.11.03-.18.1-.21.21-.03.1-.02.19.03.29.07.12.28.29.64.52.35.23.61.42.76.58.15.16.25.35.29.56s.02.44-.06.7c-.08.23-.22.43-.41.59-.19.16-.42.25-.69.27-.26.02-.56-.03-.91-.15-.5-.17-.84-.42-1.02-.75-.19-.33-.23-.73-.12-1.2Z"/>
      <path class="cls-2" d="m19.86,6.2l3.08-2.98,2.14,2.21-.52.5-1.56-1.61-.68.66,1.45,1.5-.52.5-1.45-1.5-.84.81,1.61,1.67-.52.5-2.2-2.27Z"/>
      <path class="cls-2" d="m23.15,10.69l1.71-.58,1.85-2.24.32.93-1.29,1.47,1.91.36.31.91-2.85-.64-1.7.58-.27-.79Z"/>
      <path class="cls-2" d="m23.75,16.4l3.99,1.56-.3.78-1.57-.61-.6,1.53,1.57.61-.31.78-3.99-1.56.31-.78,1.74.68.6-1.53-1.74-.68.3-.78Z"/>
      <path class="cls-2" d="m23.17,22.27c.28.33.47.65.56.96.07.23.1.46.08.7-.01.24-.07.45-.16.64-.12.25-.32.49-.58.71-.47.39-.97.56-1.5.5-.53-.06-1.02-.36-1.47-.89-.45-.53-.65-1.06-.63-1.59s.27-1,.74-1.39c.47-.4.97-.57,1.5-.5.53.06,1.01.35,1.45.88Zm-.64.58c-.31-.37-.63-.58-.96-.63-.33-.05-.62.03-.88.25-.26.22-.39.49-.39.82s.15.68.47,1.06c.32.38.63.59.95.64.32.05.6-.04.87-.26s.4-.5.4-.82c0-.32-.15-.67-.47-1.05Z"/>
      <path class="cls-2" d="m18.36,27.94l-.82.17-.46-2.27c-.07-.36-.13-.59-.17-.7-.07-.16-.18-.29-.33-.36s-.34-.09-.57-.05c-.23.05-.4.13-.5.25-.1.12-.14.26-.14.41,0,.15.04.39.11.72l.47,2.32-.82.17-.45-2.2c-.1-.5-.15-.86-.15-1.08s.05-.41.14-.58c.09-.17.23-.31.41-.44.18-.13.43-.22.76-.29.39-.08.69-.09.91-.04s.4.14.55.26c.15.12.25.26.32.42.1.23.2.58.3,1.05l.45,2.24Z"/>
      <path class="cls-2" d="m12.54,25.72l-.81-.14c.03-.29-.01-.51-.12-.68-.11-.17-.29-.28-.53-.35-.26-.07-.47-.07-.64,0s-.27.19-.31.34c-.03.1-.02.19.01.27.04.08.12.17.24.26.09.06.29.18.6.36.4.23.67.45.8.66.18.29.23.61.14.93-.06.21-.17.39-.33.54-.17.15-.37.25-.61.28s-.52.01-.83-.07c-.5-.14-.85-.35-1.04-.65-.19-.3-.24-.64-.15-1.02l.82.18c-.02.22,0,.39.1.52.09.12.25.22.47.28.24.06.43.06.59,0,.1-.04.17-.11.2-.22.03-.1,0-.19-.05-.28-.08-.12-.3-.28-.67-.48-.37-.2-.63-.38-.79-.54-.16-.15-.27-.33-.33-.54-.06-.21-.05-.44.02-.7.06-.24.19-.44.37-.61.18-.17.41-.28.67-.31.26-.04.56,0,.91.09.51.14.86.37,1.07.68.21.32.27.71.2,1.19Z"/>
      <path class="cls-2" d="m8.44,22.8l-2.83,3.21-2.31-2.04.48-.54,1.68,1.48.63-.71-1.56-1.38.48-.54,1.56,1.38.77-.87-1.74-1.53.48-.54,2.37,2.09Z"/>
      <path class="cls-2" d="m4.86,18.57l-1.66.7-1.7,2.36-.38-.91,1.18-1.56-1.93-.23-.37-.89,2.88.45,1.66-.7.32.77Z"/>
    </g>
  </g>
</svg>